<?xml version="1.0" standalone="no"?>
<!DOCTYPE svg PUBLIC "-//W3C//DTD SVG 20010904//EN"
 "http://www.w3.org/TR/2001/REC-SVG-20010904/DTD/svg10.dtd">
<svg version="1.0" xmlns="http://www.w3.org/2000/svg"
 width="1175.000000pt" height="273.000000pt" viewBox="0 0 1175.000000 273.000000"
 preserveAspectRatio="xMidYMid meet">

<g transform="translate(0.000000,273.000000) scale(0.100000,-0.100000)"
fill="#000000" stroke="none">
<path d="M0 2236 l0 -498 38 23 c38 23 511 347 614 421 l57 40 173 -123 c373
-266 511 -360 517 -354 3 4 8 227 9 496 l4 489 -356 0 -356 0 -2 -245 -3 -245
-330 231 c-181 127 -338 238 -347 247 -17 14 -18 -9 -18 -482z"/>
<path d="M1987 1900 c-134 -42 -207 -135 -207 -262 0 -86 42 -155 125 -203 22
-13 119 -48 215 -79 187 -60 232 -85 256 -142 37 -89 -4 -181 -101 -224 -121
-55 -298 -24 -436 75 l-47 34 -28 -36 -27 -36 29 -24 c49 -39 155 -90 224
-108 46 -12 94 -16 165 -13 85 3 110 8 163 32 110 51 162 130 162 245 -1 153
-79 220 -340 291 -181 49 -241 88 -256 166 -15 82 22 151 104 191 105 52 260
34 371 -42 l49 -34 22 36 c20 34 20 36 3 55 -24 27 -74 52 -157 77 -87 27
-207 27 -289 1z"/>
<path d="M11216 1911 c-32 -7 -8 43 -254 -526 -66 -154 -141 -329 -166 -388
l-45 -108 50 3 50 3 56 133 57 132 276 0 276 0 53 -127 c30 -71 58 -133 63
-140 7 -9 98 -15 98 -6 0 7 -423 985 -439 1013 -9 17 -33 21 -75 11z m108
-306 c31 -71 78 -182 105 -245 l50 -115 -236 -3 c-130 -1 -238 -1 -240 2 -2 2
43 113 100 247 57 134 110 262 117 284 l13 39 18 -39 c10 -22 43 -98 73 -170z"/>
<path d="M2672 1398 l3 -513 220 1 c170 1 235 5 285 18 103 26 184 72 249 142
96 102 131 197 131 357 0 156 -48 277 -148 373 -110 105 -223 134 -528 134
l-214 0 2 -512z m436 422 c135 -18 257 -101 311 -213 98 -200 44 -442 -126
-558 -82 -57 -147 -71 -345 -77 l-178 -4 0 431 0 431 133 0 c72 0 165 -5 205
-10z"/>
<path d="M3760 1395 l0 -515 340 0 340 0 0 45 0 45 -290 0 -290 0 0 198 0 197
252 0 253 0 3 43 3 42 -255 0 -256 0 0 190 0 190 285 0 285 0 0 40 0 40 -335
0 -335 0 0 -515z"/>
<path d="M4640 1395 l0 -515 340 0 340 0 0 45 0 45 -295 0 -295 0 0 173 c0 94
3 182 6 195 l6 22 249 0 249 0 0 45 0 45 -249 0 c-242 0 -250 1 -256 20 -4 12
-3 97 1 190 l7 170 283 0 284 0 0 40 0 40 -335 0 -335 0 0 -515z"/>
<path d="M5515 1728 c-3 -101 -5 -331 -3 -513 l3 -330 48 -3 47 -3 0 195 0
194 198 4 c192 3 198 4 254 31 67 33 111 80 147 157 20 44 25 70 25 132 0 68
-5 86 -35 145 -41 81 -93 124 -185 153 -58 17 -93 20 -279 20 l-213 0 -7 -182z
m475 78 c137 -50 192 -216 114 -343 -23 -36 -44 -55 -89 -78 -57 -29 -62 -30
-232 -33 l-173 -4 0 242 0 243 168 -6 c119 -3 180 -10 212 -21z"/>
<path d="M6740 1394 l0 -516 233 5 c252 5 292 12 403 67 75 37 170 134 208
213 69 147 65 341 -10 489 -58 115 -199 217 -342 247 -30 6 -150 11 -272 11
l-220 0 0 -516z m429 426 c101 -13 188 -55 251 -121 166 -173 158 -459 -17
-619 -91 -83 -195 -110 -432 -110 l-144 0 6 98 c4 53 7 247 7 430 l0 332 128
0 c70 0 161 -5 201 -10z"/>
<path d="M7828 1583 c-5 -347 0 -422 31 -496 27 -62 94 -133 154 -164 72 -36
178 -56 259 -49 145 13 250 82 310 204 l33 67 3 382 3 383 -46 0 -45 0 0 -354
c0 -417 -2 -428 -86 -513 -65 -65 -132 -88 -238 -81 -128 9 -211 61 -258 163
-22 49 -23 58 -26 418 l-3 367 -43 0 -43 0 -5 -327z"/>
<path d="M8750 1870 l0 -40 175 0 175 0 2 -472 3 -473 41 -1 41 -2 6 256 c4
140 7 351 7 468 l0 214 173 2 172 3 3 43 3 42 -400 0 -401 0 0 -40z"/>
<path d="M9620 1870 c0 -36 2 -40 33 -45 17 -3 75 -5 127 -3 l95 3 3 43 3 42
-130 0 -131 0 0 -40z"/>
<path d="M9994 1896 c-3 -8 -4 -27 -2 -43 l3 -28 173 -3 172 -2 0 -465 0 -465
45 0 45 0 0 465 c0 365 3 465 13 466 6 0 85 0 175 -1 l162 -1 0 30 c0 16 3 36
6 45 6 14 -33 16 -390 16 -333 0 -398 -2 -402 -14z"/>
<path d="M510 1716 c0 -6 128 -97 690 -494 74 -53 150 -107 168 -120 l32 -24
0 321 0 321 -445 0 c-245 0 -445 -2 -445 -4z"/>
<path d="M0 821 c0 -435 3 -791 6 -791 3 0 74 48 157 107 401 282 518 366 515
374 -3 9 -218 163 -500 359 l-165 115 433 5 433 5 -326 230 c-180 127 -377
265 -440 308 l-113 78 0 -790z"/>
<path d="M1265 918 c-71 -50 -230 -161 -352 -246 l-223 -155 0 -249 0 -248
355 0 355 0 0 479 c0 264 3 486 6 495 3 9 2 16 -2 15 -5 0 -67 -42 -139 -91z"/>
</g>
</svg>
